<?xml version="1.0" standalone="no"?>
<!DOCTYPE svg PUBLIC "-//W3C//DTD SVG 20010904//EN"
 "http://www.w3.org/TR/2001/REC-SVG-20010904/DTD/svg10.dtd">
<svg version="1.0" xmlns="http://www.w3.org/2000/svg"
 width="275.000000pt" height="183.000000pt" viewBox="0 0 275.000000 183.000000"
 preserveAspectRatio="xMidYMid meet">
<metadata>
Created by potrace 1.16, written by Peter Selinger 2001-2019
</metadata>
<g transform="translate(0.000000,183.000000) scale(0.100000,-0.100000)"
fill="#000000" stroke="none">
<path d="M1030 915 l0 -345 345 0 345 0 0 345 0 345 -345 0 -345 0 0 -345z
m398 -2 c3 -33 3 -33 -42 -33 l-46 0 0 -125 0 -125 -35 0 -35 0 0 125 0 125
-44 0 c-50 0 -61 10 -52 46 l7 25 122 -3 122 -3 3 -32z m190 17 c39 -24 40
-33 7 -54 -23 -15 -27 -15 -42 -1 -20 21 -47 15 -51 -11 -2 -16 8 -25 49 -44
62 -30 89 -62 89 -107 0 -60 -75 -107 -144 -89 -26 6 -86 52 -86 65 0 4 12 13
26 20 22 10 30 9 44 -4 24 -21 84 -16 88 7 2 12 -12 25 -47 42 -67 34 -91 62
-91 104 0 24 8 42 29 63 35 35 81 38 129 9z"/>
</g>
</svg>
